{"asset":{"version":"2.0","generator":"THREE.GLTFExporter"},"scenes":[{"name":"AuxScene","nodes":[0]}],"scene":0,"nodes":[{"mesh":0}],"bufferViews":[{"buffer":0,"byteOffset":0,"byteLength":13032,"target":34962,"byteStride":12},{"buffer":0,"byteOffset":13032,"byteLength":13032,"target":34962,"byteStride":12},{"buffer":0,"byteOffset":26064,"byteLength":13032,"target":34962,"byteStride":12},{"buffer":0,"byteOffset":39096,"byteLength":8688,"target":34962,"byteStride":8},{"buffer":0,"byteOffset":47784,"byteLength":2172,"target":34963}],"buffers":[{"byteLength":49956,"uri":"data:application/octet-stream;base64,"}],"accessors":[{"bufferView":0,"componentType":5126,"count":1086,"max":[3.046875,6.519205570220947,4.856349945068359],"min":[-2.859375,-0.6406627297401428,-4.300149917602539],"type":"VEC3"},{"bufferView":1,"componentType":5126,"count":1086,"max":[1,1,1],"min":[-1,-0.9999999403953552,-1],"type":"VEC3"},{"bufferView":2,"componentType":5126,"count":1086,"max":[1,1,1],"min":[1,1,1],"type":"VEC3"},{"bufferView":3,"componentType":5126,"count":1086,"max":[0.6875,0.75],"min":[0,0],"type":"VEC2"},{"bufferView":4,"componentType":5123,"count":1086,"max":[1085],"min":[0],"type":"SCALAR"}],"materials":[{"pbrMetallicRoughness":{"metallicFactor":0,"roughnessFactor":0.9,"baseColorTexture":{"index":0}},"extensions":{"KHR_materials_unlit":{}},"alphaMode":"MASK","alphaCutoff":0.01}],"textures":[{"sampler":0,"source":0}],"samplers":[{"magFilter":9728,"minFilter":9728,"wrapS":33071,"wrapT":33071}],"images":[{"mimeType":"image/png","uri":"data:image/png;base64,"}],"meshes":[{"primitives":[{"mode":4,"attributes":{"POSITION":0,"NORMAL":1,"COLOR_0":2,"TEXCOORD_0":3},"indices":4,"material":0}]}],"extensionsUsed":["KHR_materials_unlit"]}